<svg role="img" aria-label="Electric Reliability Council of Texas (ERCOT)" xmlns="http://www.w3.org/2000/svg" viewBox="0 0 226.91 83.27">
        <defs>
          <style>
            .erc-1 {
              fill: #5d6770;
            }

            .erc-2 {
              fill: #00abc7;
            }
          </style>
        </defs>
        <title>ERCOT-logo</title>
        <path class="erc-1" d="M29.43,49.05c-2.89,9.26-8.73,13.56-17.94,13.56-4.58,0-7.81-1.15-9.62-3.43C-.18,56.59-.55,52.42.78,46.77L3.93,33.3C6.49,22.34,12.6,17,22.61,17c4.58,0,7.81,1.15,9.62,3.43,2.05,2.59,2.42,6.76,1.1,12.41l-1.56,6.86a1.12,1.12,0,0,1-1.21.91H11.34c-.76,0-1.07,0-1.24.77L8.55,48c-.76,3.26-.57,5.56.59,7a5,5,0,0,0,4.18,1.68c4.14,0,6.9-2.67,8.21-7.94a.8.8,0,0,1,.75-.58h6.55a.57.57,0,0,1,.6.85M20.78,22.9c-4.22,0-7,2.77-8.28,8.25l-.44,2.05a1.7,1.7,0,0,0,0,1.07c.2.46.52.46,1.16.46H23.82c.77,0,1-.1,1.19-.83l.54-2.31c.76-3.26.57-5.55-.58-7a5,5,0,0,0-4.19-1.68"></path>
        <path class="erc-1" d="M65.73,17.65c-.34,1.48-1.19,5.11-1.53,6.56a.61.61,0,0,1-.74.45,19.91,19.91,0,0,0-4.93-.57A9.21,9.21,0,0,0,49.39,31L42.3,61.29a.6.6,0,0,1-.59.47h-7a.48.48,0,0,1-.48-.59l10-42.84a.63.63,0,0,1,.6-.47H51c.58,0,.92.11.78.67l-.14,1c-.18,1,.53,1.07,1.49.37a15.91,15.91,0,0,1,12.09-3,.61.61,0,0,1,.5.75"></path>
        <path class="erc-1" d="M92,46.33a.44.44,0,0,1,.42.54c-2.65,10.6-8.72,15.74-18.55,15.74-4.58,0-7.81-1.15-9.62-3.43-2-2.59-2.42-6.76-1.1-12.41L66.27,33.3C68.84,22.34,75,17,85,17c4.5,0,7.71,1.11,9.52,3.31s2.41,5.83,1.59,10.61a.8.8,0,0,1-.79.66H88.46A.46.46,0,0,1,88,31c.62-3,.38-5.08-.71-6.45a5,5,0,0,0-4.18-1.68c-4.22,0-7,2.77-8.28,8.25L70.9,48c-.76,3.26-.57,5.56.58,7a5,5,0,0,0,4.19,1.68c4.21,0,7-2.77,8.28-8.25l.41-1.72a.53.53,0,0,1,.52-.42Z"></path>
        <path class="erc-1" d="M109.4,62.61c-4.57,0-7.81-1.15-9.62-3.43-2-2.59-2.42-6.76-1.09-12.41l3.15-13.47c2.56-11,8.67-16.29,18.68-16.29,4.58,0,7.81,1.15,9.62,3.43,2.05,2.59,2.42,6.76,1.1,12.41l-3.15,13.47c-2.57,11-8.68,16.29-18.69,16.29m9.29-39.71c-4.21,0-7,2.77-8.28,8.25l-4,16.88c-.76,3.26-.57,5.56.59,7a5,5,0,0,0,4.18,1.68c4.22,0,7-2.77,8.28-8.25l3.95-16.88c.77-3.26.57-5.55-.58-7a5,5,0,0,0-4.19-1.68"></path>
        <path class="erc-1" d="M142.39,24.43l-6.8,29.07c-.68,2.9-.43,5.11.74,6.59,1.33,1.67,3.91,2.52,7.68,2.52a20.14,20.14,0,0,0,4-.29.49.49,0,0,0,.4-.38l1.32-5.67a.33.33,0,0,0-.32-.4h-1.68c-1.37,0-2.78-.15-3.41-.95s-.46-2.38-.08-4l6.22-26.58c.12-.51.41-.59.89-.59h5.46a.67.67,0,0,0,.65-.52l1.13-4.82a.45.45,0,0,0-.44-.55h-5.53a.49.49,0,0,1-.47-.71l2.54-10.9c.16-.77-.52-.75-.52-.75H147.4a.7.7,0,0,0-.68.45L144.05,17.3c-.12.42-.18.56-.69.56H138s-.45,0-.71.62l-1.1,4.63c-.14.54.48.64.48.64h5.08s.78,0,.6.68"></path>
        <path class="erc-2" d="M211.46,40.86,191.05,64.53a.24.24,0,0,1-.42-.19l2-10.6a.56.56,0,0,0-.71-.64l-4.7,1.38a1.17,1.17,0,0,0-.83.93l-4.56,27.14c-.09.71.5,1,1,.41l36.29-42.55a1,1,0,0,0,.07-1.14,10.88,10.88,0,0,0-5.56-4.36c-6.84-2.69-14.8,2.07-20.24,5-13.91,7.35-22.24.54-23.94-1.21a1,1,0,0,0-.69-.28h-5.93a.38.38,0,0,0-.31.61c1.3,1.73,5.24,6.62,10.76,8.44C178.2,49,186,50.39,196.21,45l.13-.08c5.48-3.12,11.31-5.79,14.92-4.57,0,0,.47.16.2.55M194.81,20.74c-8.58,5.08-14.36,5.66-16.47,4.46a.75.75,0,0,1-.36-.82l3.83-18.23a.52.52,0,0,1,.51-.41h11.46a.28.28,0,0,1,.28.36l-2.15,9.47a.35.35,0,0,0,.5.4l4.92-2.19a1,1,0,0,0,.58-.72L200.64,1a.8.8,0,0,0-.78-1l-22.1,0a.84.84,0,0,0-.82.67L171.49,26.6a1.07,1.07,0,0,0,.2.9l.58.75c.44.56,3.06,3.3,8.74,3.29,3.84,0,8.43-1.28,17.34-5.91.14-.07,13.79-8.27,21.56.87a.89.89,0,0,0,.7.33h5.92a.38.38,0,0,0,.32-.58c-9.9-15.62-24.78-9.81-32-5.51"></path>
      </svg>